<?xml version="1.0" encoding="utf-8"?>
<!-- Generator: Adobe Illustrator 21.1.0, SVG Export Plug-In . SVG Version: 6.00 Build 0)  -->
<svg version="1.1" id="Layer_1" xmlns="http://www.w3.org/2000/svg" xmlns:xlink="http://www.w3.org/1999/xlink" x="0px" y="0px"
	 viewBox="0 0 820.8 263.1" style="enable-background:new 0 0 820.8 263.1;" xml:space="preserve">
<style type="text/css">
	.st0{enable-background:new    ;}
	.st1{fill:#0791E5;}
	.st2{fill:#90CEF4;}
</style>
<g id="Layer_1_1_">
	<g class="st0">
		<path class="st1" d="M297.7,189.6c-5.9,0-11.3-1.2-16.3-3.5c-5-2.3-9.3-5.5-12.9-9.6c-3.6-4-6.4-8.7-8.4-14.1
			c-2-5.4-3-11.1-3-17.2c0-6.1,1-11.9,2.9-17.3c1.9-5.4,4.6-10.1,8-14.1c3.4-4,7.5-7.2,12.2-9.5c4.8-2.4,9.9-3.5,15.5-3.5
			c6.7,0,12.6,1.6,17.9,4.9s9.3,7.5,12.3,12.8V68.3h18v98.4c0,3.7,1.7,5.7,5.2,5.9V188c-1.9,0.3-3.5,0.5-4.9,0.7
			c-1.4,0.1-2.7,0.2-3.9,0.2c-6.8-0.7-10.6-3.8-11.5-9.3l-0.3-7.1c-3.3,5.6-7.7,9.8-13.1,12.8C309.8,188.2,303.9,189.6,297.7,189.6z
			 M302.3,174.2c2.3,0,4.7-0.4,7.2-1.3c2.5-0.9,4.9-2.1,7.1-3.6c2.2-1.5,4.1-3.3,5.7-5.4c1.6-2.1,2.8-4.3,3.4-6.7v-22.5
			c-1-2.6-2.4-5.1-4.1-7.3c-1.8-2.2-3.7-4.2-6-5.9c-2.2-1.7-4.6-3-7.1-3.9c-2.5-0.9-5-1.4-7.5-1.4c-3.8,0-7.3,0.8-10.4,2.5
			c-3.1,1.6-5.8,3.8-8,6.6c-2.2,2.7-4,5.9-5.2,9.4c-1.2,3.6-1.8,7.2-1.8,10.9c0,3.9,0.7,7.7,2.1,11.2c1.4,3.5,3.2,6.5,5.6,9.1
			c2.4,2.6,5.2,4.6,8.4,6.1C294.9,173.4,298.4,174.2,302.3,174.2z"/>
		<path class="st1" d="M406.3,189.6c-6.7,0-12.7-1.2-18.2-3.5c-5.5-2.3-10.1-5.5-14-9.6c-3.9-4-6.9-8.7-9-14.1
			c-2.1-5.4-3.2-11-3.2-17.1c0-6,1.1-11.7,3.2-17.1c2.1-5.4,5.1-10.2,9-14.3c3.9-4.1,8.6-7.3,14-9.7c5.5-2.4,11.6-3.5,18.4-3.5
			c6.7,0,12.7,1.2,18.1,3.6c5.4,2.4,10,5.6,13.9,9.6c3.8,4,6.8,8.6,8.8,13.9c2,5.3,3,10.9,3,16.6c0,1.3-0.1,2.5-0.2,3.7
			c-0.1,1.1-0.2,2.1-0.3,2.9H381c0.3,3.8,1.2,7.3,2.7,10.3c1.5,3.1,3.4,5.7,5.7,8c2.4,2.2,5,4,8,5.2c3,1.2,6.1,1.8,9.4,1.8
			c2.4,0,4.8-0.3,7.1-0.9c2.3-0.6,4.5-1.5,6.5-2.6c2-1.1,3.7-2.5,5.2-4.2c1.5-1.6,2.7-3.4,3.6-5.4l15.4,4.4
			c-3,6.5-7.8,11.7-14.7,15.8C423.3,187.6,415.3,189.6,406.3,189.6z M432.3,138.6c-0.3-3.6-1.2-6.9-2.7-10c-1.5-3.1-3.4-5.7-5.7-7.8
			s-5-3.8-8-5c-3.1-1.2-6.3-1.8-9.7-1.8c-3.4,0-6.6,0.6-9.6,1.8c-3,1.2-5.7,2.9-8,5s-4.2,4.7-5.6,7.8c-1.4,3.1-2.3,6.4-2.6,10H432.3
			z"/>
		<path class="st1" d="M541.7,188h-18v-48.1c0-8.1-1.3-14-3.9-17.6c-2.6-3.7-6.4-5.5-11.3-5.5c-2.6,0-5.3,0.5-8,1.5
			c-2.7,1-5.2,2.4-7.5,4.2c-2.3,1.8-4.3,3.9-6.2,6.4s-3.2,5.2-4.2,8.1v51h-18v-85.8H481v17.2c3.3-5.8,8-10.4,14.3-13.7
			c6.2-3.3,13.1-5,20.7-5c5.1,0,9.4,0.9,12.7,2.8c3.3,1.9,6,4.4,7.9,7.6c1.9,3.2,3.3,6.9,4,11.2c0.8,4.2,1.1,8.7,1.1,13.4V188z"/>
		<path class="st1" d="M601.2,189.6c-6.7,0-12.7-1.2-18.2-3.5c-5.5-2.3-10.1-5.5-14-9.6c-3.9-4-6.9-8.7-9-14.1
			c-2.1-5.4-3.2-11-3.2-17.1c0-6,1.1-11.7,3.2-17.1c2.1-5.4,5.1-10.2,9-14.3c3.9-4.1,8.6-7.3,14-9.7c5.5-2.4,11.6-3.5,18.4-3.5
			c6.7,0,12.7,1.2,18.1,3.6c5.4,2.4,10,5.6,13.9,9.6c3.8,4,6.8,8.6,8.8,13.9c2,5.3,3,10.9,3,16.6c0,1.3-0.1,2.5-0.2,3.7
			c-0.1,1.1-0.2,2.1-0.3,2.9H576c0.3,3.8,1.2,7.3,2.7,10.3c1.5,3.1,3.4,5.7,5.7,8c2.3,2.2,5,4,8,5.2c3,1.2,6.2,1.8,9.4,1.8
			c2.4,0,4.8-0.3,7.1-0.9c2.3-0.6,4.5-1.5,6.5-2.6c2-1.1,3.7-2.5,5.2-4.2c1.5-1.6,2.7-3.4,3.6-5.4l15.4,4.4
			c-3,6.5-7.8,11.7-14.7,15.8C618.3,187.6,610.3,189.6,601.2,189.6z M627.3,138.6c-0.3-3.6-1.2-6.9-2.7-10c-1.5-3.1-3.4-5.7-5.7-7.8
			c-2.3-2.1-5-3.8-8-5c-3.1-1.2-6.3-1.8-9.7-1.8c-3.4,0-6.6,0.6-9.6,1.8c-3,1.2-5.7,2.9-8,5c-2.3,2.1-4.2,4.7-5.6,7.8
			c-1.4,3.1-2.3,6.4-2.6,10H627.3z"/>
		<path class="st1" d="M706,189.6c-6.7,0-12.7-1.6-18-4.7c-5.3-3.1-9.5-7.3-12.5-12.5V188h-15.9V68.3h18v50.2
			c3.4-5.5,7.6-9.8,12.7-13c5.1-3.2,11.1-4.8,18-4.8c5.7,0,10.9,1.2,15.6,3.7c4.7,2.5,8.7,5.7,12.1,9.8c3.3,4.1,5.9,8.9,7.7,14.3
			s2.7,11.1,2.7,17c0,6.1-1,11.9-3.1,17.2c-2.1,5.4-4.9,10-8.5,14c-3.6,4-7.9,7.1-12.8,9.4S711.7,189.6,706,189.6z M701.3,174.2
			c3.9,0,7.5-0.8,10.8-2.4c3.3-1.6,6.1-3.7,8.4-6.3c2.3-2.6,4.2-5.7,5.5-9.1c1.3-3.4,2-7.1,2-10.9c0-3.8-0.6-7.5-1.9-11.1
			c-1.3-3.6-3-6.7-5.2-9.3c-2.2-2.7-4.9-4.8-8-6.5s-6.5-2.5-10.2-2.5c-2.8,0-5.5,0.5-8,1.5c-2.5,1-4.8,2.3-6.9,4
			c-2.1,1.7-4,3.7-5.7,5.9c-1.7,2.2-3.1,4.6-4.3,7.1v22.6c0.7,2.5,1.8,4.8,3.4,6.8c1.6,2,3.6,3.8,5.8,5.3c2.2,1.5,4.6,2.7,7.1,3.5
			C696.6,173.8,699,174.2,701.3,174.2z"/>
	</g>
</g>
<g id="Layer_3">
	<polygon class="st1" points="129.6,117.3 104.9,58.7 157.6,102 221.6,37.3 184.9,131.6 243.6,211.3 151.6,149.3 49.6,210.7 	"/>
</g>
<g id="Layer_4">
	<polygon class="st2" points="120.4,95.6 134.2,82.8 104.9,58.7 	"/>
</g>
</svg>
